<svg xmlns="http://www.w3.org/2000/svg" xmlns:xlink="http://www.w3.org/1999/xlink" width="19.969" height="20" viewBox="0 0 19.969 20">
  <defs>
    <linearGradient id="linear-gradient" x1="0.191" y1="0.194" x2="0.562" y2="0.937" gradientUnits="objectBoundingBox">
      <stop offset="0" stop-color="#ff8787"/>
      <stop offset="0.445" stop-color="#fc5d7f"/>
      <stop offset="1" stop-color="#f82976"/>
    </linearGradient>
    <linearGradient id="linear-gradient-2" x1="0.809" y1="0.194" x2="0.438" y2="0.937" xlink:href="#linear-gradient"/>
    <clipPath id="clip-path">
      <rect id="Rectangle_14463" data-name="Rectangle 14463" width="8.183" height="16.341" fill="url(#linear-gradient)"/>
    </clipPath>
  </defs>
  <g id="Group_162336" data-name="Group 162336" transform="translate(4842.833 1455.903)">
    <g id="Group_162333" data-name="Group 162333" transform="translate(-4832.314 -1452.244)">
      <g id="Group_162332" data-name="Group 162332" clip-path="url(#clip-path)">
        <path id="Path_30886" data-name="Path 30886" d="M7.975,15.3,5.852,13.15h0c0-.1.152-5.075-.489-6.735a10.315,10.315,0,0,0-1.3-2.527l-.008.005A7.692,7.692,0,0,0,3.536,3.2C3.221,2.842,1.184.388,1.113.3A.594.594,0,0,0,.008.688a15.36,15.36,0,0,0,.886,5.16l.02-.008L.9,5.846a2.317,2.317,0,0,1,1.252.194,2.278,2.278,0,0,1,.759.577,2.961,2.961,0,0,1,.6,2.231c.021.915-.009,1.847,0,2.116a.618.618,0,0,1-.526.711c-.608.083-.661-.62-.661-.62v-.1h0V8.28a1.2,1.2,0,0,0,.006-.124A1.167,1.167,0,0,0,1.176,6.98,1.167,1.167,0,0,0,.018,8.157c0,.037,0,.073.005.109H.017v.35H.011l.006,2.258v.088h0l0,1.482A3.186,3.186,0,0,0,1.255,14.91l0,0,1.406,1.406,4.785.01A.592.592,0,0,0,7.975,15.3" fill="url(#linear-gradient)"/>
      </g>
    </g>
    <g id="Group_162334" data-name="Group 162334" transform="translate(-4841.55 -1452.244)">
      <g id="Group_162332-2" data-name="Group 162332" transform="translate(0 0)" clip-path="url(#clip-path)">
        <path id="Path_30886-2" data-name="Path 30886" d="M.208,15.3,2.331,13.15h0c0-.1-.152-5.075.489-6.735a10.315,10.315,0,0,1,1.3-2.527l.008.005A7.692,7.692,0,0,1,4.647,3.2C4.962,2.842,7,.388,7.07.3A.594.594,0,0,1,8.175.688a15.36,15.36,0,0,1-.886,5.16L7.27,5.84l.009.006a2.317,2.317,0,0,0-1.252.194,2.278,2.278,0,0,0-.759.577,2.961,2.961,0,0,0-.6,2.231c-.021.915.009,1.847,0,2.116a.618.618,0,0,0,.526.711c.608.083.661-.62.661-.62v-.1h0V8.28a1.2,1.2,0,0,1-.006-.124,1.158,1.158,0,1,1,2.316,0c0,.037,0,.073-.005.109h.006v.35h.006l-.006,2.258v.088h0l0,1.482A3.186,3.186,0,0,1,6.928,14.91l0,0L5.517,16.314l-4.785.01A.592.592,0,0,1,.208,15.3" fill="url(#linear-gradient-2)"/>
      </g>
    </g>
    <path id="Union_34" data-name="Union 34" d="M18.194,10.572a.565.565,0,1,1,0-1.131H19.4a.565.565,0,0,1,0,1.131Zm-17.629,0a.565.565,0,1,1,0-1.131h1.21a.565.565,0,1,1,0,1.131ZM17.059,6.436a.565.565,0,0,1-.276-1.055l1.02-.589a.565.565,0,1,1,.565.979l-1.02.589a.563.563,0,0,1-.275.076ZM2.9,6.436a.563.563,0,0,1-.275-.076L1.6,5.771a.565.565,0,1,1,.565-.979l1.02.589a.565.565,0,0,1,.283.483v.015a.566.566,0,0,1-.559.557ZM13.811,3.38a.565.565,0,0,1-.207-.772l.589-1.02a.565.565,0,0,1,.489-.283h0a.566.566,0,0,1,.564.559v.014a.562.562,0,0,1-.076.275l-.589,1.02a.565.565,0,0,1-.772.207ZM5.386,3.173,4.8,2.153A.565.565,0,0,1,5.285,1.3h0a.565.565,0,0,1,.489.283l.589,1.02a.565.565,0,1,1-.979.565Zm4.035-1.43V.565a.565.565,0,0,1,1.131,0V1.744a.565.565,0,0,1-1.131,0Z" transform="translate(-4842.833 -1455.903)" fill="#fd7483"/>
  </g>
</svg>
